<?xml version="1.0" standalone="no"?>
<!DOCTYPE svg PUBLIC "-//W3C//DTD SVG 20010904//EN"
 "http://www.w3.org/TR/2001/REC-SVG-20010904/DTD/svg10.dtd">
<svg version="1.0" xmlns="http://www.w3.org/2000/svg"
 width="260.000000pt" height="260.000000pt" viewBox="0 0 260.000000 260.000000"
 preserveAspectRatio="xMidYMid meet">
<metadata>
Created by potrace 1.14, written by Peter Selinger 2001-2017
</metadata>
<g transform="translate(0.000000,260.000000) scale(0.100000,-0.100000)"
fill="#000000" stroke="none">
<path d="M0 2589 c0 -5 5 -7 10 -4 5 3 10 8 10 11 0 2 -4 4 -10 4 -5 0 -10 -5
-10 -11z"/>
<path d="M117 2565 c6 -38 -15 -51 -24 -15 -8 29 -23 14 -23 -24 0 -24 -9 -41
-35 -66 l-35 -34 0 -169 c0 -135 3 -167 13 -159 20 17 99 42 132 42 42 0 135
-55 135 -80 0 -10 5 -22 11 -25 6 -4 9 -21 8 -39 -2 -17 3 -43 10 -58 20 -39
9 -60 -23 -45 -15 7 -28 19 -31 28 -6 16 -70 53 -95 54 -8 0 -21 4 -27 8 -7 4
-22 3 -34 -3 -15 -9 -24 -9 -32 -1 -8 8 -7 11 5 11 9 0 19 7 22 16 8 20 -28
81 -38 65 -4 -6 -19 -11 -33 -11 l-26 0 23 -24 c15 -17 21 -33 18 -50 -4 -21
1 -27 36 -42 23 -10 51 -27 63 -38 15 -12 23 -15 23 -7 0 28 33 5 35 -24 3
-43 -3 -47 -34 -24 -25 18 -31 19 -74 7 -38 -10 -52 -10 -67 0 -19 11 -20 9
-20 -38 l0 -51 31 16 c17 9 68 23 114 31 76 13 87 13 124 -2 56 -22 95 -68 80
-95 -5 -11 -7 -28 -4 -38 7 -23 -19 -51 -45 -51 -13 0 -17 -5 -14 -14 4 -11 0
-13 -16 -9 l-21 6 21 -36 c12 -20 20 -44 18 -53 -3 -16 -4 -16 -19 -2 -14 14
-18 14 -40 -3 -21 -17 -22 -19 -5 -19 11 0 28 -7 38 -17 10 -9 28 -21 41 -27
37 -19 35 -76 -5 -121 -40 -46 -161 -104 -238 -113 l-55 -7 -3 -60 -3 -60 53
0 c52 0 53 0 56 -32 4 -38 -27 -84 -75 -114 l-33 -21 0 -119 0 -120 58 2 c80
3 132 -16 132 -46 0 -12 -7 -28 -15 -35 -13 -11 -19 -9 -36 8 -26 29 -30 28
-23 -6 5 -23 1 -30 -23 -41 -15 -7 -36 -17 -45 -22 -10 -5 -20 -5 -23 1 -14
22 -25 8 -25 -31 l0 -40 48 7 c26 4 63 14 82 24 42 21 130 24 130 6 0 -7 -12
-26 -26 -41 -21 -22 -31 -26 -59 -22 -18 3 -51 1 -74 -4 -32 -7 -48 -6 -71 6
l-30 16 0 -34 c0 -22 9 -43 30 -65 43 -47 43 -128 0 -219 -19 -41 -30 -79 -30
-108 l0 -45 320 0 320 0 -6 28 c-5 24 0 34 30 60 23 20 47 32 66 32 16 0 41 5
57 11 67 25 157 -16 191 -90 16 -33 21 -36 65 -39 34 -2 47 1 47 10 -1 17 -25
110 -44 172 -23 71 -21 121 5 140 12 8 28 12 35 9 32 -12 75 -64 95 -114 23
-59 22 -107 -5 -160 -29 -57 -26 -59 84 -59 l100 0 0 28 c0 21 -2 24 -10 12
-9 -13 -13 -12 -29 7 -26 31 -26 153 0 202 12 22 15 39 9 46 -27 33 47 155 95
155 11 0 30 7 42 15 35 24 127 10 162 -25 84 -85 98 -335 23 -422 -14 -17 -10
-18 76 -18 84 0 110 8 81 25 -20 13 50 52 102 58 28 4 63 14 76 23 24 15 25
15 18 -8 -4 -12 -16 -37 -26 -54 -11 -17 -19 -34 -19 -38 0 -3 24 -6 54 -6 57
0 66 8 66 53 0 71 150 267 205 267 28 0 27 -26 -4 -58 -45 -49 -96 -132 -111
-182 -26 -87 -39 -80 160 -80 l177 0 -1 23 c-1 20 4 22 47 22 l47 0 0 58 c0
42 -4 59 -15 63 -19 8 -19 28 0 44 12 10 14 71 14 403 0 372 0 391 -17 371
-20 -24 -140 -99 -147 -92 -3 2 9 26 26 52 28 42 30 49 19 76 -16 38 -5 110
21 143 10 14 16 32 13 41 -3 9 -3 40 0 70 7 51 9 54 47 66 36 12 39 16 39 51
0 29 -5 39 -20 44 -11 3 -25 3 -31 -1 -8 -4 -8 0 0 15 7 12 21 27 31 34 18 11
20 24 20 168 0 153 0 156 -21 155 -32 -1 -35 22 -5 34 l26 10 0 140 c0 117 -2
140 -15 140 -8 0 -17 12 -21 28 -3 15 -12 52 -20 83 -20 80 -18 99 16 152 35
55 35 54 15 74 -18 18 -69 5 -71 -18 -2 -33 -5 -40 -33 -71 l-29 -33 39 -64
c32 -54 39 -74 39 -118 0 -73 -41 -153 -79 -153 -9 0 -27 -12 -40 -25 -26 -28
-46 -30 -138 -14 -80 14 -108 43 -99 102 5 30 2 45 -15 68 -20 28 -20 34 -9
77 7 26 17 52 22 59 5 6 6 22 3 36 -8 32 20 50 64 41 24 -5 31 -3 31 9 0 21
98 28 117 9 8 -8 21 -11 31 -7 14 7 13 9 -7 14 -14 4 -26 12 -29 19 -6 20 28
26 48 7 23 -21 31 -9 27 40 -2 27 1 30 23 27 20 -3 23 -1 13 9 -21 21 -16 28
29 39 29 8 48 9 65 1 22 -10 23 -9 23 34 l0 45 -181 -2 -181 -3 -3 -35 c-1
-29 -15 -50 -75 -113 -72 -76 -93 -87 -130 -67 -15 8 -17 6 -13 -10 4 -14 0
-20 -13 -21 -34 -2 -49 2 -67 20 -16 16 -16 20 15 80 17 35 38 65 45 68 7 3
13 11 13 19 0 17 17 18 23 2 3 -10 8 -10 17 -2 9 9 8 17 -5 38 -14 20 -21 24
-35 16 -24 -13 -67 -13 -75 0 -3 6 -17 10 -31 10 -15 0 -23 -4 -19 -11 4 -6 4
-35 0 -65 -6 -54 -13 -66 -80 -139 -32 -34 -128 -49 -186 -30 -70 24 -150 109
-196 207 -15 32 -23 38 -49 38 -29 0 -33 -4 -42 -42 -15 -57 -31 -78 -75 -93
-72 -25 -117 8 -131 96 -5 34 -10 39 -33 39 -17 0 -35 -10 -48 -25 -11 -13
-32 -27 -46 -30 -23 -6 -29 -2 -40 24 -9 20 -21 31 -34 31 -19 0 -21 -6 -21
-67 -1 -38 -4 -84 -8 -103 -7 -32 -6 -33 8 -17 8 11 24 17 38 15 36 -5 31 -71
-11 -131 -18 -26 -36 -45 -41 -42 -5 3 -18 1 -30 -5 -11 -5 -29 -14 -40 -20
-11 -5 -26 -10 -33 -10 -17 0 -50 37 -65 73 -17 39 -15 126 3 161 8 15 15 39
15 52 0 13 9 33 20 44 35 35 26 50 -32 50 -39 0 -57 -5 -74 -21 -22 -20 -27
-21 -69 -9 -25 7 -48 17 -51 21 -3 5 -31 9 -62 9 -44 -1 -53 -3 -39 -11 19
-11 24 -64 7 -74 -8 -5 -93 -129 -135 -198 -54 -87 -87 -122 -138 -144 -77
-34 -89 107 -20 238 28 55 128 153 175 174 31 13 26 14 -89 15 l-122 0 6 -35z
m850 -57 c-3 -8 -6 -5 -6 6 -1 11 2 17 5 13 3 -3 4 -12 1 -19z m1341 -15 c-14
-30 -52 -83 -59 -83 -12 0 -12 2 5 41 17 40 25 49 44 49 7 0 12 -3 10 -7z
m-1781 -49 c2 -5 -19 -45 -46 -89 -27 -44 -66 -108 -88 -142 -21 -34 -41 -63
-45 -63 -4 0 -14 -13 -23 -30 -9 -16 -20 -30 -25 -30 -20 0 -9 32 35 96 25 36
45 70 45 76 0 6 20 38 44 72 24 33 51 76 60 94 16 31 36 38 43 16z m933 -59
c26 -19 52 -35 56 -35 5 0 23 -11 39 -25 38 -31 20 -31 -69 -1 -75 26 -112 55
-103 80 9 24 24 20 77 -19z m-121 -41 c9 -3 12 -16 7 -47 -9 -72 -13 -91 -21
-112 -7 -18 -5 -17 19 4 14 14 30 39 34 55 7 25 16 33 45 40 30 8 40 6 56 -8
27 -24 34 -66 22 -114 -12 -42 -85 -162 -107 -175 -7 -4 -21 -24 -30 -44 -10
-20 -26 -38 -36 -41 -10 -2 -18 -10 -18 -18 0 -27 -44 -42 -130 -46 l-85 -3
-3 30 c-2 17 -9 33 -15 37 -9 6 -9 12 0 25 20 29 54 93 49 93 -3 0 -21 -10
-42 -22 -34 -20 -40 -20 -83 -8 -25 7 -54 12 -63 12 -19 -1 -33 27 -20 40 4 4
23 3 42 -2 36 -10 46 -8 35 9 -3 6 -19 11 -34 11 -59 0 -58 40 3 105 20 21 36
44 36 51 0 7 11 21 25 31 14 10 38 28 53 41 53 46 74 55 135 62 58 6 92 5 126
-6z m-358 -82 c-30 -59 -78 -84 -125 -66 -12 5 -8 12 20 30 19 13 41 24 49 24
18 0 65 50 66 70 1 12 2 11 6 -2 2 -9 -5 -34 -16 -56z m899 8 c11 -11 20 -32
20 -47 0 -15 10 -37 21 -50 18 -18 20 -25 9 -38 -7 -8 -20 -15 -29 -15 -15 -1
-15 -1 0 -10 23 -14 45 -121 30 -149 -7 -11 -18 -21 -25 -21 -8 0 -20 -7 -27
-16 -12 -15 -15 -14 -26 12 l-12 29 -2 -35 c-1 -19 -1 -39 0 -44 3 -12 -20
-26 -41 -26 -22 0 -98 72 -98 93 0 10 -12 18 -34 22 -21 4 -38 16 -47 31 -12
24 -54 43 -66 30 -11 -11 -33 16 -33 41 0 16 19 42 56 80 45 44 65 56 97 61
22 3 63 20 91 39 58 38 88 41 116 13z m-1296 -16 c-1 -10 -5 -27 -9 -36 -5
-13 -3 -18 9 -18 9 0 16 -4 16 -10 0 -16 -43 -95 -57 -103 -7 -4 -21 -25 -32
-47 l-18 -39 34 -33 c27 -26 36 -30 43 -19 12 21 1 40 -31 54 l-28 12 27 31
c15 18 41 34 60 37 38 8 43 -8 7 -25 -32 -15 -13 -31 28 -22 20 4 27 2 27 -10
0 -10 -6 -13 -15 -9 -9 3 -15 2 -14 -3 2 -9 -7 -35 -34 -96 -7 -16 -16 -28
-20 -28 -5 0 -15 -7 -23 -15 -8 -8 -22 -11 -32 -8 -25 9 -62 44 -62 60 0 7
-11 31 -25 53 -22 35 -25 48 -19 93 9 71 29 117 51 117 10 0 35 16 56 35 21
19 35 35 32 35 -3 0 -3 5 0 11 10 16 30 4 29 -17z m1476 -79 c0 -17 -2 -18
-25 -9 -13 5 -14 8 -3 15 19 13 28 11 28 -6z m-72 -7 c16 -16 15 -38 -1 -38
-19 0 -36 20 -30 36 6 17 15 18 31 2z m-1130 -106 c2 -7 -3 -12 -12 -12 -9 0
-16 7 -16 16 0 17 22 14 28 -4z m-21 -89 c20 -18 49 -100 39 -110 -3 -3 -20 3
-38 14 -34 19 -56 68 -45 97 8 21 20 20 44 -1z m727 -12 c0 -14 5 -21 17 -21
10 0 23 -9 29 -20 10 -18 13 -19 37 -6 24 12 30 11 60 -8 51 -33 44 -50 -19
-42 -29 4 -54 11 -56 17 -2 5 -14 6 -27 3 -36 -9 -93 75 -68 100 12 12 28 -1
27 -23z m-556 -17 c13 -13 27 -24 32 -24 6 0 10 -7 10 -15 0 -8 4 -15 9 -15
13 0 20 -25 12 -39 -13 -20 -70 9 -113 58 -21 22 -38 45 -38 49 0 31 54 23 88
-14z m1042 -14 c0 -5 -4 -10 -9 -10 -19 0 -34 -62 -28 -126 4 -56 2 -68 -15
-83 -26 -25 -58 -86 -58 -112 0 -44 -23 -99 -41 -99 -10 0 -25 -9 -33 -21 -25
-36 -31 -14 -24 88 8 123 15 158 39 179 13 11 16 25 13 44 -4 15 -1 31 5 34 6
4 11 15 11 24 1 37 70 92 118 92 12 0 22 -4 22 -10z m-1820 -60 c0 -5 -4 -10
-10 -10 -5 0 -10 5 -10 10 0 6 5 10 10 10 6 0 10 -4 10 -10z m507 -40 c32 0
94 -80 100 -129 5 -34 1 -47 -21 -75 -14 -19 -26 -39 -26 -45 0 -5 -17 -26
-37 -47 -21 -20 -38 -44 -38 -53 0 -21 -75 -111 -93 -111 -7 0 -27 -7 -43 -16
-18 -9 -38 -12 -47 -8 -21 9 -53 5 -69 -8 -21 -17 -41 -1 -53 41 -6 22 -15 43
-20 46 -6 3 -10 25 -10 49 0 23 -5 47 -12 54 -9 9 -8 16 5 30 9 10 17 26 17
35 0 9 5 19 10 22 6 3 10 14 10 24 0 10 12 28 26 42 14 13 32 36 40 51 8 15
30 39 49 54 36 27 134 55 170 48 11 -2 30 -4 42 -4z m643 -4 c0 -3 -4 -8 -10
-11 -5 -3 -10 -1 -10 4 0 6 5 11 10 11 6 0 10 -2 10 -4z m173 -18 c9 -5 17
-14 17 -21 0 -8 16 -13 42 -13 46 -2 72 -25 107 -96 l19 -37 -29 -60 c-26 -55
-32 -61 -60 -61 -34 0 -61 -12 -90 -41 -10 -10 -23 -19 -29 -19 -5 0 -10 -9
-10 -19 0 -23 -45 -36 -90 -26 -21 5 -30 13 -30 26 0 23 -15 25 -24 4 -7 -19
-55 -20 -62 -1 -3 8 -14 16 -25 19 -59 16 33 164 119 191 35 11 26 26 -17 26
-22 0 -44 6 -51 15 -14 17 -2 36 60 92 30 27 42 31 85 31 28 -1 58 -5 68 -10z
m917 -18 c14 -11 30 -20 36 -20 40 -1 59 -80 30 -121 -9 -13 -16 -34 -16 -47
0 -16 -5 -22 -17 -20 -13 2 -19 -5 -21 -24 -2 -16 -9 -28 -16 -28 -7 0 -33
-22 -59 -50 -27 -29 -55 -50 -67 -50 -12 0 -35 -7 -52 -16 -21 -11 -46 -15
-77 -11 -25 3 -38 3 -28 0 36 -9 11 -28 -34 -25 -35 2 -50 9 -76 37 -22 23
-33 45 -33 65 0 18 -6 33 -15 37 -12 4 -15 19 -14 61 2 48 7 61 34 88 30 30
46 37 120 50 17 3 34 9 40 15 5 5 23 9 40 10 28 1 28 1 6 8 l-24 7 27 18 c15
9 34 15 42 12 7 -3 30 1 51 9 53 19 94 18 123 -5z m-1233 -207 c4 -11 -1 -22
-15 -31 -12 -8 -22 -22 -22 -32 0 -13 -9 -17 -42 -18 -41 0 -71 -9 -110 -32
-10 -5 -26 -14 -35 -19 -10 -4 -19 -19 -21 -32 -4 -29 -28 -49 -58 -49 -15 0
-25 -8 -30 -22 -6 -21 -7 -21 -21 -2 -15 19 -15 19 -26 0 -30 -49 -56 -71 -68
-59 -25 25 -1 85 60 144 114 112 366 210 388 152z m53 -179 c34 -9 70 -43 70
-66 0 -10 6 -18 14 -18 8 0 18 -5 21 -11 8 -13 -14 -99 -26 -99 -4 0 -20 -12
-36 -27 -70 -67 -83 -76 -125 -80 -24 -2 -47 -9 -52 -14 -6 -5 -17 -9 -25 -9
-12 1 -10 6 7 20 l23 19 -22 25 c-25 28 -52 35 -43 11 4 -8 1 -15 -5 -15 -7 0
-11 -20 -11 -50 0 -42 -3 -50 -19 -50 -12 0 -18 -7 -17 -17 1 -15 -9 -18 -67
-21 -63 -3 -68 -2 -76 21 -6 14 -14 28 -20 31 -14 9 -1 114 20 161 23 50 40
70 109 121 109 80 119 85 190 80 36 -3 76 -8 90 -12z m1128 -41 c2 -11 12 -29
23 -39 10 -9 19 -25 19 -35 0 -10 5 -21 11 -25 8 -5 10 -29 6 -76 -6 -75 -58
-198 -106 -250 -34 -38 -79 -38 -124 2 -42 37 -57 109 -32 156 8 16 15 34 15
40 0 6 9 19 19 28 11 10 17 24 15 31 -3 7 14 29 37 49 33 28 38 36 23 36 -18
1 -18 1 1 17 19 15 19 15 -12 9 -44 -7 -42 10 2 31 19 9 32 20 29 25 -6 10 34
28 56 25 8 -1 16 -12 18 -24z m122 -4 c0 -12 -7 -19 -20 -19 -24 0 -38 29 -20
40 19 12 40 1 40 -21z m-762 -125 c18 -8 32 -22 32 -30 0 -8 6 -23 12 -34 11
-17 9 -23 -9 -41 -17 -18 -28 -20 -59 -15 -47 9 -94 57 -94 96 0 26 4 29 38
33 20 2 40 4 43 5 3 1 20 -5 37 -14z m432 -9 c0 -7 -6 -15 -12 -18 -19 -6 -38
3 -38 18 0 7 6 15 13 18 18 6 37 -3 37 -18z m-1892 3 c38 -38 -13 -73 -121
-84 -72 -7 -92 6 -39 28 15 6 52 23 82 39 64 33 62 33 78 17z m1636 -24 c31
-12 12 -64 -23 -64 -8 0 -22 -7 -30 -14 -22 -20 -36 -9 -44 32 -6 29 -4 33 12
27 10 -3 24 1 31 10 13 16 29 19 54 9z m-1442 -45 c7 -21 83 -41 162 -45 90
-3 106 -8 106 -28 0 -22 -100 -49 -173 -47 -62 1 -94 20 -110 64 -3 9 -13 17
-22 17 -18 0 -20 36 -2 43 21 9 35 7 39 -4z m-425 -45 c-3 -3 -12 -4 -19 -1
-8 3 -5 6 6 6 11 1 17 -2 13 -5z m1033 2 c0 -11 -19 -15 -25 -6 -3 5 1 10 9
10 9 0 16 -2 16 -4z m-820 -71 c0 -7 6 -15 13 -18 9 -3 7 -10 -6 -25 -15 -16
-16 -24 -7 -41 6 -12 16 -21 23 -21 7 0 21 -7 31 -15 16 -12 17 -18 8 -27 -7
-7 -12 -20 -12 -30 0 -10 -11 -23 -24 -28 -13 -5 -28 -15 -33 -22 -18 -29 -65
-58 -82 -49 -27 14 -111 22 -111 10 0 -15 -43 -7 -48 9 -2 8 28 46 68 84 39
39 65 68 57 65 -23 -9 -26 2 -11 31 8 15 14 33 14 40 0 7 14 21 30 31 36 22
90 26 90 6z m1735 -12 c17 -7 45 -33 62 -57 36 -47 93 -154 93 -174 0 -7 7
-24 16 -37 16 -25 16 -61 -1 -59 -5 1 -17 14 -26 30 -10 19 -25 30 -42 32 -21
3 -27 9 -27 28 0 14 6 24 14 24 22 0 28 17 14 40 -15 24 -31 26 -48 5 -17 -20
-30 -19 -30 4 0 26 -19 38 -63 38 -28 1 -37 -3 -35 -14 5 -30 -22 -25 -33 5
-6 17 -16 33 -24 36 -7 2 -11 13 -9 24 3 10 -1 24 -9 30 -11 9 -20 5 -44 -23
-18 -20 -27 -38 -21 -41 5 -3 7 -16 4 -29 -4 -15 -1 -25 9 -29 8 -3 15 -16 15
-30 0 -26 29 -44 40 -25 6 8 9 8 15 0 4 -7 1 -18 -5 -26 -7 -8 -9 -15 -4 -15
5 0 1 -5 -8 -11 -10 -5 -18 -19 -18 -29 0 -19 1 -19 43 0 23 11 50 20 60 20
11 0 17 8 17 24 0 13 7 26 15 30 12 4 14 0 9 -18 -5 -20 0 -24 41 -36 47 -13
55 -33 16 -38 -24 -4 -35 -21 -29 -49 3 -14 10 -10 41 20 39 39 52 40 68 4 5
-12 21 -37 34 -56 28 -38 27 -76 -4 -157 -18 -46 -93 -120 -111 -109 -5 3 -10
0 -10 -7 0 -16 -57 -81 -80 -91 -8 -4 -42 -23 -75 -42 -77 -44 -105 -46 -105
-5 0 16 6 33 13 37 7 4 20 28 30 52 13 35 14 47 4 53 -9 6 -9 11 3 22 8 8 21
16 29 18 18 4 101 84 101 97 0 5 9 11 20 14 16 4 20 14 20 50 0 40 -2 45 -20
40 -23 -6 -25 -14 -8 -31 9 -9 3 -15 -25 -27 -19 -8 -38 -19 -42 -25 -3 -5
-15 -10 -25 -10 -21 0 -83 -73 -121 -140 -13 -22 -28 -40 -35 -40 -11 0 -35
47 -39 75 -1 6 -4 19 -8 30 -10 30 27 98 115 213 39 50 45 62 29 62 -13 0 -22
12 -31 44 -7 24 -25 57 -41 72 -32 31 -31 48 8 125 47 94 158 129 258 82z
m-400 -7 c31 -22 4 -43 -62 -48 -46 -4 -60 -10 -78 -31 -11 -15 -30 -27 -42
-27 -11 0 -26 -7 -33 -15 -7 -8 -21 -15 -30 -15 -10 0 -31 -11 -47 -24 -15
-13 -42 -30 -59 -39 -17 -9 -36 -23 -43 -31 -17 -20 -55 -21 -71 -1 -16 20 4
89 35 117 25 24 80 48 110 48 13 0 47 12 76 27 38 20 71 29 121 31 37 3 68 8
68 13 0 14 34 11 55 -5z m527 -21 c11 -44 -8 -56 -37 -22 -27 31 -23 60 8 55
13 -2 24 -14 29 -33z m-1756 10 c7 -18 -17 -75 -32 -75 -6 0 -21 11 -34 25
-18 19 -20 28 -12 38 7 8 9 17 5 20 -3 4 10 7 31 7 23 0 39 -5 42 -15z m397
-60 c26 -4 50 -12 53 -16 3 -5 12 -9 20 -9 24 0 98 -37 118 -58 10 -11 16 -29
14 -39 -3 -15 -14 -18 -64 -19 -34 -1 -72 3 -85 10 -19 9 -33 9 -65 0 -52 -16
-205 -26 -223 -15 -9 6 -11 16 -6 32 l8 23 -28 -18 c-22 -15 -32 -16 -52 -7
-35 16 -26 50 22 81 73 48 143 56 288 35z m1092 -75 c3 -5 1 -10 -4 -10 -6 0
-11 5 -11 10 0 6 2 10 4 10 3 0 8 -4 11 -10z m-249 -88 c6 -4 16 -20 21 -37
l11 -30 7 27 c4 16 11 25 16 22 15 -9 10 -93 -8 -127 -17 -32 -17 -32 -21 -7
-2 14 -9 28 -15 32 -12 7 -57 -11 -57 -24 0 -4 -12 -8 -28 -8 -15 0 -38 -7
-51 -17 -19 -13 -28 -14 -43 -4 -10 6 -23 9 -29 5 -14 -8 -59 35 -59 57 0 9
14 29 32 44 27 23 39 26 77 22 39 -4 48 -2 74 24 28 29 52 36 73 21z m-888
-74 c63 -24 93 -60 117 -143 9 -33 20 -67 25 -75 4 -8 17 -47 29 -87 l22 -71
-27 -51 c-39 -75 -59 -83 -44 -18 6 28 4 46 -6 65 -8 15 -14 35 -14 44 0 9 -9
20 -20 23 -11 3 -20 12 -20 20 0 7 -18 32 -40 55 -42 43 -54 72 -48 111 2 16
11 25 26 27 25 4 30 22 5 22 -21 0 -103 48 -103 60 0 6 -9 10 -20 10 -33 0
-23 -26 23 -61 23 -18 46 -36 51 -41 14 -12 -137 -8 -151 4 -7 6 -20 8 -28 4
-24 -9 -28 15 -10 58 12 28 27 42 58 56 48 22 90 19 175 -12z m477 -3 c0 -5
-16 -11 -36 -13 -26 -2 -38 1 -43 13 -5 14 1 16 37 13 23 -2 42 -7 42 -13z
m-308 -1 c-3 -3 -12 -4 -19 -1 -8 3 -5 6 6 6 11 1 17 -2 13 -5z m1484 -14 c11
-6 19 -21 19 -35 0 -13 4 -27 10 -30 10 -6 9 -11 -4 -75 -9 -41 -96 -120 -132
-120 -24 0 -35 31 -26 75 4 25 5 25 29 10 14 -9 27 -15 29 -13 6 7 -51 68 -64
68 -5 0 -14 12 -20 28 -7 21 -4 34 12 59 18 27 28 33 66 36 25 2 49 4 53 5 5
1 17 -3 28 -8z m-1313 -89 c9 -5 31 -14 47 -21 42 -15 70 -90 34 -90 -5 0 -9
7 -9 15 0 12 -4 13 -19 5 -27 -14 -41 -13 -41 5 0 29 -19 15 -22 -17 -3 -36
-27 -50 -34 -21 -3 10 -15 23 -27 28 -33 15 -34 58 -1 84 29 23 45 26 72 12z
m-538 -46 c7 -8 18 -15 25 -15 25 0 120 -48 141 -71 39 -44 80 -141 68 -161
-9 -14 -66 2 -87 26 -14 15 -17 17 -13 4 2 -9 -2 -19 -9 -22 -9 -3 -12 -12 -9
-21 4 -10 -5 -27 -25 -45 -33 -32 -75 -41 -64 -14 4 12 0 14 -19 9 -38 -10
-157 39 -190 78 -15 18 -27 37 -28 43 0 6 -9 23 -20 37 -11 14 -17 28 -12 31
5 3 7 18 4 34 -2 16 3 43 12 60 16 31 18 31 99 35 45 1 89 4 98 5 9 1 22 -5
29 -13z m1715 -5 c3 -5 -1 -10 -9 -10 -9 0 -16 5 -16 10 0 6 4 10 9 10 6 0 13
-4 16 -10z m-1515 -260 c0 -5 -7 -10 -15 -10 -8 0 -15 5 -15 10 0 6 7 10 15
10 8 0 15 -4 15 -10z m1634 -52 c7 -12 4 -28 -12 -60 -12 -24 -30 -70 -40
-102 -10 -33 -24 -62 -30 -64 -19 -6 -14 14 24 104 24 56 35 94 32 114 -5 32
8 36 26 8z m-2152 -5 c22 -20 23 -42 3 -49 -10 -4 -13 -13 -10 -25 5 -15 1
-19 -19 -19 -14 0 -28 -4 -31 -10 -3 -5 -14 -10 -24 -10 -20 0 -44 43 -31 56
5 5 10 20 12 34 2 16 12 27 28 31 40 11 52 10 72 -8z m48 -23 c0 -11 -2 -20
-5 -20 -2 0 -9 9 -15 20 -9 16 -8 20 5 20 8 0 15 -9 15 -20z m2290 -95 c0 -8
-12 -17 -27 -21 -16 -3 -39 -10 -52 -15 -16 -7 -27 -7 -34 0 -17 17 12 40 49
39 19 -1 37 2 41 5 11 12 23 8 23 -8z m-2004 -17 c9 -14 -23 -38 -52 -38 -29
0 -39 16 -24 35 15 18 66 20 76 3z"/>
<path d="M1295 2150 c-3 -5 -1 -10 4 -10 6 0 11 5 11 10 0 6 -2 10 -4 10 -3 0
-8 -4 -11 -10z"/>
<path d="M1766 2130 c-16 -10 -40 -30 -53 -44 -13 -14 -28 -26 -32 -26 -12 0
-21 -39 -10 -46 5 -3 9 0 9 6 0 6 10 10 23 9 30 -3 87 11 87 22 0 5 -7 9 -15
9 -8 0 -15 5 -15 11 0 5 4 8 8 5 13 -8 52 23 52 40 0 8 5 14 11 14 5 0 7 5 4
10 -9 15 -36 11 -69 -10z"/>
<path d="M642 1538 c5 -15 28 -18 29 -3 0 6 -7 12 -17 13 -10 3 -15 -1 -12
-10z"/>
<path d="M550 1474 c-15 -40 -13 -57 8 -49 31 12 37 10 34 -10 -2 -11 -2 -18
0 -15 2 3 11 15 21 26 18 21 18 23 -10 48 -35 32 -41 32 -53 0z"/>
<path d="M1440 1525 c-7 -8 -19 -15 -28 -15 -8 0 -13 -2 -10 -5 10 -10 56 6
62 21 7 19 -8 18 -24 -1z"/>
<path d="M2285 1460 c-3 -5 1 -10 9 -10 8 0 18 5 21 10 3 6 -1 10 -9 10 -8 0
-18 -4 -21 -10z"/>
<path d="M2175 1440 c-3 -5 1 -10 9 -10 9 0 16 5 16 10 0 6 -4 10 -9 10 -6 0
-13 -4 -16 -10z"/>
<path d="M2226 1431 c-15 -6 -16 -10 -7 -15 8 -5 20 -2 29 8 17 17 9 19 -22 7z"/>
<path d="M1150 1171 c0 -6 5 -13 10 -16 6 -3 10 1 10 9 0 9 -4 16 -10 16 -5 0
-10 -4 -10 -9z"/>
<path d="M1200 1150 c0 -5 5 -10 11 -10 5 0 7 5 4 10 -3 6 -8 10 -11 10 -2 0
-4 -4 -4 -10z"/>
<path d="M2402 1253 c-17 -33 -22 -73 -15 -115 l6 -43 10 30 c5 17 10 41 13
55 2 14 6 40 10 58 7 35 -9 45 -24 15z"/>
<path d="M2010 950 c0 -5 9 -10 21 -10 11 0 17 5 14 10 -3 6 -13 10 -21 10 -8
0 -14 -4 -14 -10z"/>
<path d="M2020 394 c0 -8 5 -12 10 -9 6 3 10 10 10 16 0 5 -4 9 -10 9 -5 0
-10 -7 -10 -16z"/>
<path d="M1956 321 c-4 -7 -5 -15 -2 -18 9 -9 19 4 14 18 -4 11 -6 11 -12 0z"/>
<path d="M1765 2505 c0 -62 4 -98 13 -107 9 -9 12 -5 12 23 0 18 5 51 11 72
11 42 -3 107 -24 107 -8 0 -12 -29 -12 -95z"/>
<path d="M2077 2584 c2 -6 18 -14 34 -16 23 -4 29 -1 29 13 0 14 -7 18 -34 17
-23 -1 -33 -5 -29 -14z"/>
<path d="M103 1643 c9 -2 23 -2 30 0 6 3 -1 5 -18 5 -16 0 -22 -2 -12 -5z"/>
<path d="M114 1466 c-11 -6 -19 -17 -16 -24 5 -15 -3 -15 -26 -1 -14 9 -27 9
-48 1 l-29 -10 35 -2 35 -2 -32 -10 c-36 -12 -45 -38 -13 -38 29 0 151 46 169
64 14 15 13 16 -7 16 -12 0 -22 5 -22 10 0 13 -19 11 -46 -4z"/>
<path d="M1315 70 c3 -5 11 -10 16 -10 6 0 7 5 4 10 -3 6 -11 10 -16 10 -6 0
-7 -4 -4 -10z"/>
</g>
</svg>
